<?xml version="1.0" standalone="no"?>
<!DOCTYPE svg PUBLIC "-//W3C//DTD SVG 20010904//EN"
 "http://www.w3.org/TR/2001/REC-SVG-20010904/DTD/svg10.dtd">
<svg version="1.0" xmlns="http://www.w3.org/2000/svg"
 width="260.000000pt" height="260.000000pt" viewBox="0 0 260.000000 260.000000"
 preserveAspectRatio="xMidYMid meet">
<metadata>
Created by potrace 1.11, written by Peter Selinger 2001-2013
</metadata>
<g transform="translate(0.000000,260.000000) scale(0.100000,-0.100000)"
fill="#000000" stroke="none">
<path d="M850 2478 c0 -5 -5 -6 -12 -2 -7 4 -8 3 -4 -4 4 -8 15 -8 31 -2 16 6
25 6 25 0 0 -6 -8 -10 -18 -10 -10 0 -24 -6 -31 -12 -9 -8 -11 -8 -8 -2 4 7 0
15 -9 18 -10 4 -13 2 -8 -6 5 -7 2 -9 -9 -5 -12 4 -14 2 -10 -10 5 -13 3 -14
-15 -4 -19 10 -21 9 -15 -5 4 -12 3 -15 -5 -10 -7 4 -15 1 -18 -8 -3 -9 -10
-13 -16 -10 -13 8 -49 -26 -41 -39 3 -5 1 -7 -4 -4 -6 4 -13 0 -17 -8 -3 -8
-12 -15 -21 -15 -8 0 -15 -6 -15 -13 0 -7 -7 -22 -16 -33 -14 -18 -15 -18 -4
6 11 24 10 24 -5 5 -8 -11 -13 -25 -11 -32 3 -8 -1 -10 -11 -6 -10 4 -14 2
-10 -4 3 -5 -1 -21 -11 -34 -9 -13 -15 -33 -13 -43 2 -13 -2 -17 -13 -13 -10
4 -13 1 -9 -8 3 -8 10 -12 17 -8 6 3 7 2 3 -3 -5 -5 -13 -10 -18 -10 -22 -3
-23 -5 -10 -13 11 -7 10 -14 -5 -37 -11 -15 -13 -25 -6 -21 6 5 12 4 12 -2 0
-6 -5 -11 -10 -11 -7 0 -7 -6 -1 -19 8 -15 7 -20 -5 -25 -13 -5 -14 -9 -5 -20
14 -17 -2 -32 -21 -20 -7 5 -9 2 -5 -9 4 -11 2 -14 -8 -10 -8 3 -12 10 -9 17
3 6 0 4 -8 -4 -16 -19 -53 -27 -42 -9 4 8 3 10 -5 5 -6 -4 -9 -11 -6 -16 3 -4
-3 -14 -12 -21 -12 -10 -14 -10 -9 -1 4 6 2 12 -3 12 -6 0 -11 -5 -11 -11 0
-6 -7 -9 -14 -6 -10 4 -13 1 -9 -9 3 -8 2 -14 -3 -13 -20 3 -35 -2 -29 -10 3
-5 1 -12 -5 -16 -5 -3 -10 0 -10 7 0 7 -10 -2 -22 -20 -12 -19 -26 -31 -34
-28 -8 3 -13 2 -12 -2 4 -16 -14 -52 -27 -52 -7 0 -15 -9 -18 -20 -3 -13 -1
-18 6 -15 7 3 2 -2 -11 -11 -22 -17 -32 -41 -10 -28 7 4 8 3 4 -4 -4 -7 -14
-12 -22 -12 -8 0 -12 -5 -9 -10 4 -6 11 -7 17 -4 7 4 8 2 4 -5 -4 -6 -11 -9
-16 -6 -4 3 -10 -5 -13 -16 -3 -12 -10 -19 -14 -16 -12 7 -11 -54 1 -72 6 -10
6 -12 -3 -7 -9 6 -12 -15 -10 -88 1 -71 5 -96 15 -100 12 -5 12 -1 4 17 -10
20 -9 19 9 -3 24 -30 18 -44 -12 -29 -21 10 -21 10 -3 -5 11 -9 23 -16 28 -16
4 0 8 -11 8 -24 0 -14 5 -28 12 -32 7 -5 8 -3 3 6 -5 8 -4 11 3 6 6 -4 9 -13
5 -21 -3 -8 0 -15 5 -15 6 0 9 -9 7 -21 -4 -17 -2 -19 10 -9 13 10 15 8 15
-13 0 -13 8 -31 18 -38 15 -13 16 -12 3 4 -8 9 -11 20 -9 23 3 3 12 -9 19 -26
9 -18 19 -28 28 -25 8 3 11 0 8 -9 -4 -9 -1 -13 6 -10 8 3 12 -7 12 -26 1 -20
-4 -30 -15 -31 -9 0 -10 -2 -3 -5 7 -3 9 -12 6 -20 -3 -7 -9 -12 -13 -9 -5 3
-7 -3 -5 -12 1 -10 -3 -24 -9 -32 -9 -12 -8 -13 4 -6 12 7 13 6 3 -6 -6 -8
-10 -31 -9 -52 1 -27 -2 -36 -12 -32 -10 4 -10 0 2 -16 10 -15 12 -29 6 -50
-6 -18 -5 -31 2 -35 7 -5 8 -2 3 6 -5 9 -4 11 4 6 6 -4 8 -13 4 -19 -12 -19
-12 -37 -2 -37 6 0 8 -4 5 -9 -3 -5 0 -14 8 -20 7 -6 14 -23 14 -37 -1 -14 7
-31 17 -38 11 -8 15 -18 10 -26 -5 -9 -4 -11 3 -6 7 4 12 2 12 -4 0 -6 7 -18
15 -27 8 -8 12 -19 9 -25 -4 -7 -2 -8 4 -4 7 4 12 2 12 -4 0 -6 5 -8 12 -4 6
4 8 3 5 -3 -4 -6 3 -19 15 -29 12 -11 18 -13 14 -6 -4 6 -5 12 -2 12 3 0 12
-12 20 -27 9 -16 16 -21 16 -13 0 12 3 11 11 -2 5 -10 16 -18 24 -18 8 0 17
-5 21 -12 5 -7 3 -8 -6 -3 -8 5 -11 4 -7 -2 4 -6 18 -9 32 -7 20 2 24 -1 16
-10 -8 -10 -2 -13 29 -12 39 1 53 -7 28 -17 -7 -3 -3 -4 9 -4 12 1 19 5 17 9
-3 4 2 5 10 2 9 -3 13 -11 9 -17 -3 -6 -1 -7 5 -3 7 4 12 1 12 -6 0 -10 2 -10
9 1 14 21 41 23 33 3 -5 -15 -4 -15 11 -3 12 9 17 10 17 2 0 -7 5 -9 10 -6 6
4 8 11 5 16 -3 5 1 6 9 3 9 -3 13 -11 10 -18 -3 -6 1 -3 9 7 14 17 33 24 23 9
-3 -5 1 -9 8 -9 8 0 12 6 9 13 -3 8 2 11 13 10 10 -2 20 -11 24 -20 3 -10 10
-18 15 -19 6 -1 9 -8 9 -14 -1 -7 2 -10 7 -7 5 3 9 -2 9 -11 0 -10 5 -13 13
-9 7 5 6 0 -3 -11 -9 -11 -10 -16 -2 -11 8 5 15 -1 21 -16 6 -13 10 -17 10
-10 1 6 6 12 11 12 7 0 7 -7 -1 -21 -8 -16 -8 -20 1 -14 13 8 53 -29 42 -39
-3 -4 2 -4 13 0 15 6 17 4 12 -10 -4 -9 -3 -15 2 -11 5 3 13 0 16 -6 4 -5 14
-8 23 -4 9 3 13 3 10 -1 -10 -9 15 -32 30 -27 8 4 10 -1 5 -13 -6 -17 -5 -17
10 -5 13 10 17 10 17 1 0 -9 3 -10 14 -1 11 9 15 8 20 -4 3 -9 2 -13 -3 -10
-5 3 -12 1 -15 -3 -3 -5 58 -10 135 -11 114 -2 139 0 133 11 -6 10 -4 10 9 -1
15 -12 21 -9 18 12 0 4 6 7 14 7 9 0 12 -6 8 -17 -5 -15 -3 -14 10 2 8 11 13
24 10 29 -4 5 0 6 8 0 20 -12 40 -14 33 -3 -3 5 -10 6 -16 3 -7 -4 -8 -2 -4 4
4 6 14 8 23 5 12 -5 14 -3 8 7 -6 10 -4 12 8 7 11 -4 18 1 23 15 5 16 8 18 15
7 7 -11 9 -10 9 4 0 15 11 22 33 18 4 0 7 6 7 14 0 8 6 15 14 15 8 0 13 8 12
17 0 11 6 17 16 17 10 -1 15 2 12 7 -3 5 0 9 6 9 6 0 8 5 5 10 -3 6 -1 10 6
10 7 0 9 3 6 6 -3 4 5 15 18 26 14 11 25 24 25 30 0 6 -9 0 -20 -13 l-20 -24
17 32 c16 28 19 29 31 15 7 -10 11 -12 8 -5 -4 6 -1 15 5 19 8 4 9 3 5 -5 -5
-8 0 -10 18 -7 15 3 24 1 21 -5 -4 -5 -10 -7 -15 -4 -5 3 -11 2 -13 -3 -3 -4
14 -7 38 -7 24 0 41 3 38 8 -2 4 1 7 6 7 6 0 11 -5 11 -11 0 -8 5 -7 15 1 9 7
18 10 22 6 3 -3 0 -6 -7 -6 -7 0 -11 -2 -8 -5 10 -10 38 7 31 19 -3 6 4 2 16
-8 21 -19 22 -19 15 -1 -6 15 -4 17 9 12 10 -4 17 -2 17 4 0 7 11 9 26 6 19
-3 24 -1 19 11 -4 12 -3 13 10 2 14 -11 19 -7 16 12 0 4 7 4 16 1 12 -5 15 -2
11 9 -4 8 -1 15 7 15 7 0 11 -7 8 -16 -4 -14 -4 -14 6 -1 6 8 15 15 20 15 13
0 60 53 53 60 -4 3 1 3 9 0 9 -3 22 2 30 12 13 17 13 17 -6 3 -20 -14 -20 -14
-1 7 10 13 23 20 29 16 6 -3 7 -1 3 5 -4 7 -2 12 3 12 6 0 11 5 11 11 0 5 -6
7 -12 4 -7 -4 -4 0 6 9 10 8 23 13 27 10 4 -2 6 4 4 15 -2 13 3 22 16 26 11 4
17 11 14 16 -3 5 -1 18 6 30 7 15 8 19 0 15 -7 -5 -8 0 -2 16 5 13 14 22 19
21 11 -3 8 28 -4 50 -6 9 -5 9 7 0 11 -9 14 -7 16 14 1 19 -1 22 -8 12 -5 -8
-9 -9 -9 -3 0 5 5 15 12 22 9 9 9 12 0 12 -7 0 -12 5 -12 11 0 5 4 8 8 5 4 -2
8 6 8 20 0 13 -4 24 -8 24 -4 0 -8 5 -8 11 0 5 4 8 8 5 5 -3 9 1 9 9 0 8 -5
11 -10 8 -6 -4 -8 0 -4 9 3 9 -2 26 -10 39 -13 17 -13 20 -2 14 12 -8 12 -6 1
8 -8 9 -11 21 -7 27 3 5 -2 10 -12 10 -15 0 -16 2 -3 10 8 5 10 10 4 10 -6 0
-11 7 -11 15 0 8 4 12 9 9 5 -4 8 2 6 11 -2 11 9 24 29 35 18 9 30 20 26 24
-6 6 12 10 30 7 4 -1 2 9 -4 21 -12 22 -11 22 7 8 10 -8 16 -10 11 -5 -4 4 1
17 10 28 13 15 14 18 3 13 -8 -4 -4 2 10 14 14 12 19 19 12 15 -11 -6 -11 -3
-1 13 7 12 18 18 24 14 5 -3 4 1 -3 10 -8 10 -9 19 -3 22 5 3 11 3 14 -1 2 -5
2 -2 0 4 -1 7 -5 19 -6 25 -2 7 -2 10 0 6 3 -5 10 -8 17 -8 10 0 13 33 15 126
1 80 -2 124 -8 120 -5 -4 -13 -2 -16 4 -4 6 -1 9 7 8 7 -2 13 7 15 22 1 14 -1
17 -3 8 -6 -21 -20 -23 -30 -6 -4 6 2 17 12 25 19 14 19 14 -1 11 -12 -2 -19
2 -18 10 2 6 -1 12 -6 12 -5 0 -7 9 -4 20 3 12 0 20 -6 20 -7 0 -9 -5 -5 -12
4 -7 3 -8 -4 -4 -6 4 -8 14 -5 23 5 11 3 14 -6 8 -10 -6 -11 -3 -2 13 9 16 7
19 -7 18 -9 0 -16 5 -15 11 2 7 0 12 -5 12 -20 -3 -23 3 -11 18 8 10 9 14 2
10 -6 -4 -14 -3 -18 3 -4 6 -11 8 -16 5 -5 -3 -6 2 -2 11 4 12 3 15 -5 10 -7
-4 -12 -2 -12 4 0 6 -5 8 -12 4 -8 -5 -9 -2 -5 10 4 9 3 14 -2 11 -5 -3 -13 0
-16 6 -4 5 -14 8 -23 4 -9 -3 -13 -3 -10 1 8 8 -14 34 -24 27 -5 -2 -8 2 -8 9
0 9 -3 9 -10 -2 -8 -13 -10 -12 -10 4 0 13 -5 17 -20 13 -10 -3 -19 -2 -18 2
2 19 -3 24 -12 11 -6 -10 -10 -11 -10 -2 0 6 -5 12 -11 12 -5 0 -7 -6 -3 -12
6 -10 5 -10 -8 -1 -8 7 -19 9 -23 5 -5 -4 -5 -1 -1 6 4 6 2 12 -4 12 -7 0 -9
7 -6 16 3 9 3 21 -1 27 -10 16 -12 67 -2 61 5 -3 6 2 3 10 -3 9 -11 13 -18 9
-6 -4 -4 2 4 12 9 11 10 16 3 11 -9 -5 -13 0 -13 14 0 12 -4 18 -10 15 -14 -9
-12 8 3 24 10 11 10 13 0 7 -8 -4 -13 -1 -13 8 0 9 -6 16 -12 16 -9 0 -8 4 2
10 13 8 12 10 -3 10 -10 0 -15 5 -12 10 3 6 1 10 -6 10 -7 0 -10 3 -7 6 3 3
-4 16 -16 28 -31 33 -56 69 -56 79 0 4 -4 6 -9 2 -5 -3 -13 0 -16 6 -4 5 -14
8 -22 4 -13 -4 -14 -3 -4 9 13 16 5 25 -21 21 -10 -2 -15 2 -12 10 4 10 -1 12
-15 8 -18 -4 -20 -2 -14 13 6 17 5 18 -12 4 -11 -9 -16 -10 -11 -2 5 8 -1 12
-18 12 -14 0 -25 5 -23 11 1 6 -5 14 -13 16 -13 4 -13 3 0 -6 8 -6 13 -11 10
-12 -25 -5 -48 -4 -45 1 2 3 0 12 -5 20 -7 11 -11 11 -24 1 -11 -9 -16 -10
-16 -2 0 7 -17 11 -45 9 -25 0 -45 -6 -45 -12 0 -7 -3 -7 -8 1 -9 14 -51 14
-69 0 -9 -6 -13 -5 -13 3 0 8 -3 11 -6 7 -3 -3 -3 -11 1 -17 5 -8 11 -8 21 1
12 10 17 9 27 0 9 -10 8 -11 -5 -6 -11 4 -18 2 -18 -5 0 -7 -8 -9 -19 -5 -11
3 -22 2 -25 -3 -3 -5 -17 -8 -32 -6 -20 2 -24 -1 -19 -14 3 -9 3 -13 -1 -9 -4
4 -13 2 -20 -3 -6 -6 -18 -9 -25 -8 -8 2 -13 -3 -11 -10 1 -6 -4 -11 -10 -10
-7 2 -12 -2 -11 -8 1 -6 -4 -11 -12 -11 -8 0 -12 4 -9 9 3 4 -2 5 -10 2 -9 -3
-13 -11 -9 -18 7 -12 -33 20 -58 46 -12 14 -18 15 -29 5 -9 -9 -11 -9 -6 0 9
17 -35 47 -46 30 -6 -9 -8 -9 -8 2 0 8 -6 11 -16 7 -12 -5 -14 -1 -10 17 3 12
3 16 0 10 -3 -7 -10 -13 -15 -13 -6 0 -8 4 -5 9 3 5 -51 8 -124 8 -72 0 -130
-5 -130 -9z m237 -14 c-3 -3 -12 -4 -19 -1 -8 3 -5 6 6 6 11 1 17 -2 13 -5z
m-67 -108 c0 -6 5 -4 10 4 8 13 10 13 10 1 0 -11 4 -9 15 5 10 13 13 14 10 3
-8 -21 20 -45 31 -28 4 7 3 9 -4 5 -6 -3 -13 -2 -16 3 -8 13 19 8 37 -7 8 -7
19 -12 23 -11 20 3 37 -1 30 -8 -4 -4 8 -13 26 -19 21 -8 26 -13 14 -13 -20
-1 -20 -1 0 -16 13 -10 15 -14 5 -15 -8 0 -12 -3 -8 -6 3 -4 -2 -14 -11 -23
-10 -9 -13 -13 -8 -8 6 4 15 7 21 7 5 0 -1 -8 -15 -18 -16 -10 -25 -26 -24
-39 1 -13 -2 -23 -6 -23 -5 0 -6 -9 -3 -20 3 -12 0 -20 -6 -20 -7 0 -10 4 -6
9 3 5 2 12 -3 15 -4 2 -8 -6 -8 -19 0 -13 3 -22 6 -20 4 2 7 -2 7 -10 0 -8 -4
-12 -8 -10 -4 3 -10 -2 -13 -11 -3 -8 -2 -12 4 -9 11 7 8 -30 -3 -41 -4 -4 -7
-12 -7 -18 0 -6 5 -4 10 4 9 13 10 13 10 -1 0 -8 -5 -20 -11 -26 -8 -8 -7 -13
2 -18 8 -6 10 -4 4 5 -5 8 -4 11 3 6 15 -9 3 -38 -12 -29 -6 3 -3 -3 7 -14 16
-18 17 -25 7 -44 -10 -19 -10 -21 3 -16 10 4 14 0 13 -11 -2 -9 5 -25 15 -36
14 -15 16 -23 8 -33 -9 -9 -8 -13 0 -13 7 0 9 -4 6 -10 -3 -5 0 -10 8 -10 8 0
17 -11 19 -25 3 -13 2 -22 -3 -20 -4 3 -14 -1 -22 -9 -8 -8 -18 -12 -22 -8 -5
4 -5 -1 -2 -10 4 -13 2 -15 -10 -11 -11 4 -14 2 -9 -5 5 -8 1 -10 -10 -5 -11
4 -15 3 -11 -4 5 -7 0 -9 -13 -6 -11 3 -20 1 -20 -4 0 -5 -6 -10 -14 -10 -9 0
-12 6 -8 16 5 14 3 14 -10 3 -14 -11 -16 -10 -11 6 2 11 -1 23 -8 27 -8 6 -10
4 -4 -5 5 -8 4 -11 -2 -7 -6 4 -9 18 -8 32 2 14 -1 25 -6 25 -6 0 -8 4 -5 9 3
5 -4 11 -15 14 -12 3 -18 10 -15 16 4 6 -2 19 -12 29 -10 10 -21 26 -25 35 -3
9 -16 17 -27 17 -11 0 -20 5 -20 11 0 5 6 7 13 3 9 -6 8 -3 -1 8 -8 9 -20 14
-28 11 -8 -3 -14 0 -14 7 0 12 -24 40 -35 40 -3 0 -3 -6 0 -12 4 -7 -2 -4 -12
8 -19 21 -24 24 -49 24 -9 0 -12 5 -8 13 6 9 4 9 -8 -1 -12 -9 -18 -10 -23 -2
-4 6 -13 9 -21 6 -7 -3 -16 0 -20 6 -5 7 -2 8 6 3 9 -5 11 -4 6 4 -6 9 -11 9
-22 0 -11 -9 -14 -9 -14 1 0 9 -3 10 -14 1 -17 -14 -41 11 -32 34 3 8 0 15 -6
15 -6 0 -3 10 8 22 10 12 13 18 7 14 -9 -5 -13 -1 -13 12 0 11 7 22 15 26 8 3
15 11 15 18 0 9 -3 8 -10 -2 -6 -9 -10 -10 -10 -3 0 7 8 17 18 22 9 6 13 11 8
11 -5 0 -3 7 4 15 6 8 9 19 5 25 -3 5 2 10 11 10 10 0 15 3 11 6 -8 9 16 33
27 26 5 -3 6 0 2 6 -8 14 34 54 50 48 8 -3 11 2 9 14 -3 13 1 17 11 13 8 -3
21 3 29 13 8 11 15 15 15 9 0 -5 5 -3 10 5 7 11 10 11 10 2 0 -7 5 -10 10 -7
6 4 7 11 4 17 -4 6 1 6 14 -1 15 -8 23 -8 28 1 4 6 3 8 -4 4 -6 -3 -13 -3 -16
2 -2 4 6 8 19 8 13 0 22 -3 20 -6 -2 -4 2 -7 10 -7 8 0 12 4 9 9 -3 4 4 8 16
8 13 0 19 -5 15 -12 -3 -7 0 -6 6 3 13 18 39 15 39 -5z m555 4 c-3 -5 -1 -12
5 -15 6 -4 9 -1 8 6 -2 6 3 14 10 16 6 3 12 -1 12 -9 0 -10 3 -9 11 2 9 12 12
13 16 1 4 -10 7 -10 13 -1 6 9 12 9 30 0 12 -6 28 -9 36 -6 8 3 13 2 10 -3 -3
-5 1 -12 10 -15 9 -3 12 -2 8 5 -9 15 38 -13 57 -34 11 -12 20 -14 24 -7 9 15
25 2 18 -15 -3 -8 0 -15 7 -15 15 0 41 -26 33 -34 -4 -3 1 -6 10 -6 10 0 17
-8 17 -21 0 -11 5 -17 10 -14 6 3 10 -3 10 -15 0 -13 4 -19 12 -14 6 4 8 3 4
-4 -3 -6 -1 -14 5 -17 5 -4 8 -13 5 -21 -3 -8 0 -14 5 -14 6 0 9 -9 6 -20 -3
-11 -1 -20 4 -20 4 0 5 -7 2 -17 -4 -10 -2 -14 4 -10 7 4 10 -2 9 -17 0 -13
-5 -22 -10 -18 -5 3 -6 -3 -2 -13 6 -16 4 -16 -11 -4 -11 9 -14 10 -9 2 4 -8
2 -13 -4 -13 -6 0 -9 -4 -5 -9 6 -10 -41 -5 -58 6 -6 3 -7 1 -4 -4 4 -6 0 -14
-9 -17 -8 -3 -13 -2 -10 3 4 5 -5 4 -19 -2 -14 -7 -25 -16 -25 -22 0 -5 -5 -3
-10 5 -7 12 -11 10 -19 -10 -5 -14 -10 -20 -10 -13 -1 18 -40 3 -46 -18 -4
-11 -11 -17 -16 -14 -5 4 -9 1 -9 -5 0 -6 -4 -8 -10 -5 -5 3 -10 -1 -10 -9 0
-8 -5 -18 -12 -22 -7 -5 -8 -3 -3 6 6 9 4 11 -4 6 -7 -5 -10 -14 -7 -22 3 -7
0 -11 -7 -8 -7 2 -24 -10 -37 -28 -13 -18 -17 -28 -9 -23 8 6 7 2 -4 -7 -10
-10 -16 -22 -12 -28 4 -6 1 -9 -7 -8 -7 2 -12 -5 -12 -14 1 -11 -5 -18 -15
-18 -14 0 -14 -2 -1 -10 14 -9 7 -14 -13 -11 -5 1 -6 -2 -3 -7 3 -5 -2 -18
-10 -28 -12 -15 -16 -16 -21 -5 -5 11 -7 11 -14 0 -7 -11 -9 -11 -9 3 0 11 -7
15 -25 14 -13 -2 -22 1 -19 5 3 5 -2 9 -11 9 -11 0 -15 5 -11 15 3 8 2 14 -2
13 -4 -1 -15 2 -24 6 -13 6 -15 13 -9 24 5 10 9 21 9 27 0 5 6 11 13 14 7 2 9
-1 4 -9 -6 -9 -4 -11 4 -5 9 5 9 11 3 17 -7 7 -4 22 9 44 13 23 15 34 6 34 -8
0 -8 3 2 9 7 5 10 14 7 20 -4 6 -2 10 4 9 7 -2 13 13 15 35 3 22 0 35 -5 32
-6 -3 -7 1 -4 9 3 9 11 13 17 9 6 -4 7 -1 1 8 -5 8 -7 21 -6 31 2 9 -2 19 -8
23 -7 4 -7 13 1 27 8 16 8 22 -2 28 -7 5 -14 16 -15 24 -1 9 2 14 7 10 5 -3 6
-10 3 -16 -4 -7 -2 -8 4 -4 15 9 -7 47 -23 39 -5 -4 -7 -3 -3 2 4 4 2 15 -5
23 -9 13 -9 14 1 8 21 -12 13 4 -17 36 -24 26 -27 36 -21 59 5 15 6 30 2 33
-3 3 0 6 6 6 7 0 12 -5 12 -11 0 -5 11 2 25 17 14 15 25 24 25 20 0 -3 12 1
28 11 26 17 26 17 13 0 -12 -15 -12 -17 3 -11 9 3 16 10 16 15 0 14 28 11 34
-3 4 -7 4 -3 2 9 -3 15 0 20 10 16 8 -3 12 -9 9 -13z m-259 -222 c-8 -5 -7 -8
2 -8 6 0 12 -9 12 -19 0 -10 8 -22 18 -26 16 -6 16 -7 -2 -21 -17 -12 -18 -14
-3 -14 9 0 17 -4 17 -10 0 -5 -6 -10 -12 -10 -9 0 -8 -4 2 -10 11 -7 11 -10 2
-10 -10 0 -10 -5 -2 -20 8 -15 8 -20 -1 -20 -8 0 -8 -4 1 -15 10 -12 9 -15 -6
-15 -11 0 -15 -4 -9 -8 15 -10 17 -32 3 -32 -6 0 -8 -3 -5 -7 4 -3 -3 -18 -15
-31 l-23 -25 25 13 c23 12 24 12 11 -3 -26 -32 -72 -14 -66 26 2 9 -1 17 -7
17 -6 0 -4 7 3 17 8 10 9 14 2 10 -6 -4 -14 -3 -18 3 -3 5 -1 10 5 10 7 0 8 6
1 17 -5 10 -5 26 0 40 7 18 5 23 -9 23 -16 1 -16 1 1 11 13 7 15 15 8 28 -6
11 -6 22 1 32 8 11 8 9 3 -6 -5 -16 -4 -17 6 -8 10 10 9 15 -1 27 -10 13 -9
17 4 22 9 3 16 10 16 16 0 5 -5 6 -12 2 -7 -4 -8 -3 -4 4 4 7 14 12 22 12 8 0
14 5 14 11 0 5 -5 7 -12 3 -7 -5 -8 -3 -4 5 6 9 12 8 26 -6 12 -12 14 -20 6
-25z m-634 -272 c7 5 8 2 3 -5 -5 -9 -1 -12 11 -11 31 4 45 0 40 -9 -6 -9 36
-31 59 -31 8 0 15 -7 15 -16 0 -10 6 -14 14 -11 9 4 17 -2 21 -14 4 -11 11
-16 18 -12 7 4 6 -1 -2 -10 -12 -15 -12 -17 2 -12 8 4 18 1 23 -6 4 -8 3 -10
-4 -5 -7 4 -12 3 -12 -1 0 -5 10 -13 23 -18 12 -6 21 -18 21 -27 -1 -10 -2
-27 -3 -38 0 -11 -5 -20 -11 -20 -5 0 -6 8 -3 18 6 15 5 16 -12 2 -15 -12 -17
-12 -10 -1 6 11 3 13 -15 8 -17 -4 -23 -1 -27 14 -5 16 -8 18 -14 7 -7 -10 -9
-11 -9 0 0 8 -5 10 -12 6 -7 -5 -9 -2 -5 9 4 11 2 14 -9 10 -18 -7 -46 16 -40
33 3 8 -2 11 -14 9 -18 -3 -38 27 -32 49 2 5 -4 6 -12 3 -11 -4 -13 -1 -9 11
6 15 5 16 -12 2 -12 -10 -16 -10 -11 -2 4 7 3 19 -4 27 -8 10 -8 15 1 21 8 5
9 3 4 -6 -5 -9 -4 -11 4 -6 6 4 9 17 6 29 -2 12 -2 16 1 9 3 -6 11 -9 16 -6z
m-161 -5 c-11 -7 -10 -10 6 -15 10 -3 19 -14 20 -23 3 -59 7 -72 20 -61 11 8
12 7 7 -7 -6 -14 -4 -16 7 -10 8 4 11 5 7 0 -4 -4 -2 -15 5 -23 10 -13 9 -14
-3 -8 -8 5 2 -7 23 -26 20 -19 37 -40 37 -47 0 -7 7 -11 14 -8 11 4 13 1 9
-10 -5 -12 -2 -15 10 -10 11 4 17 1 17 -8 0 -7 5 -17 12 -21 7 -4 8 -3 4 4 -5
8 -2 10 8 6 9 -3 13 -11 9 -17 -4 -6 2 -8 15 -5 16 4 19 2 15 -10 -5 -12 -1
-14 15 -10 14 4 20 2 15 -5 -4 -6 2 -8 15 -5 12 4 22 2 22 -4 0 -5 5 -6 12 -2
7 5 9 2 6 -8 -7 -16 17 -18 41 -3 9 5 12 4 7 -3 -3 -6 -2 -13 4 -17 5 -3 10
-1 10 6 0 8 3 9 13 0 8 -6 17 -8 20 -4 7 7 11 -12 8 -36 -2 -8 2 -10 11 -5 10
6 11 5 1 -8 -7 -8 -10 -18 -6 -21 3 -4 2 -7 -4 -7 -6 0 -9 -9 -5 -22 4 -16 2
-19 -9 -13 -11 7 -11 5 1 -10 8 -10 10 -16 5 -13 -6 4 -17 -2 -24 -14 -7 -11
-8 -17 -2 -13 6 3 11 4 11 1 0 -3 -9 -10 -20 -16 -15 -8 -18 -8 -14 3 3 8 -2
14 -10 14 -8 0 -12 -5 -9 -10 3 -5 0 -7 -8 -5 -8 3 -13 14 -11 24 3 18 3 18
-10 0 -13 -17 -15 -17 -31 -1 -12 12 -17 13 -17 3 0 -10 -2 -10 -9 1 -7 10
-10 11 -16 1 -6 -10 -11 -9 -22 5 -8 12 -13 14 -13 6 0 -8 -8 -11 -20 -8 -11
3 -20 0 -20 -6 0 -8 -4 -7 -9 2 -5 7 -11 9 -14 4 -3 -5 -22 -8 -41 -8 -20 1
-36 -2 -36 -6 0 -5 -6 -6 -14 -3 -8 3 -17 0 -21 -5 -3 -6 -11 -8 -17 -5 -6 4
-8 2 -4 -4 3 -6 2 -13 -4 -17 -5 -3 -10 0 -10 7 0 10 -2 10 -9 -1 -5 -8 -14
-10 -21 -6 -9 5 -11 4 -6 -3 4 -7 2 -12 -4 -12 -6 0 -8 -4 -5 -10 9 -14 -9
-12 -24 3 -10 10 -11 9 -6 -4 4 -10 1 -20 -6 -25 -8 -5 -10 -3 -4 7 4 8 -8 -2
-28 -21 -19 -19 -33 -39 -30 -44 4 -5 1 -6 -6 -2 -6 4 -8 13 -5 19 5 8 3 8 -7
0 -13 -13 -38 -19 -27 -7 4 3 -6 18 -21 32 -16 15 -27 35 -25 45 2 15 0 16
-12 6 -8 -7 -14 -8 -12 -3 1 5 -3 19 -10 32 -7 12 -10 26 -7 31 3 5 -1 16 -9
24 -11 11 -12 17 -3 27 9 10 9 11 0 6 -9 -5 -13 2 -13 23 0 16 -5 33 -10 36
-7 4 -7 13 0 24 6 12 5 22 -1 28 -8 8 -7 13 2 18 8 6 10 4 4 -5 -5 -9 -4 -11
4 -6 9 6 9 11 1 21 -8 10 -8 15 1 21 8 5 10 3 4 -7 -5 -8 -4 -10 0 -6 12 10
16 39 5 32 -11 -7 -6 25 6 33 5 4 9 14 9 22 0 8 5 14 12 13 7 -2 10 3 7 11 -3
8 0 17 7 22 8 5 10 3 4 -6 -5 -9 -4 -11 4 -6 9 6 9 11 0 22 -10 13 -6 18 14
15 4 0 7 6 7 14 0 9 7 18 15 21 8 4 12 11 8 18 -4 6 0 6 9 -2 13 -11 16 -10
14 5 -1 12 5 17 17 15 10 -2 17 3 17 13 0 9 4 14 9 11 5 -3 12 1 15 10 4 9 9
14 13 11 3 -4 13 -1 21 6 13 10 15 9 8 -3 -6 -12 -4 -11 6 1 7 9 18 14 25 12
6 -2 14 1 18 6 3 6 12 11 18 11 8 0 7 -3 -2 -9z m1412 -16 c-3 -8 0 -15 6 -15
9 0 9 -5 1 -21 -7 -11 -17 -18 -24 -16 -9 4 -12 -3 -10 -19 1 -13 -3 -27 -8
-31 -7 -3 -8 -1 -4 5 4 7 2 12 -3 12 -6 0 -11 -7 -11 -16 0 -8 -4 -12 -10 -9
-5 3 -10 1 -10 -5 0 -6 -6 -18 -14 -26 -11 -11 -16 -11 -19 -1 -4 7 -6 6 -6
-4 -1 -9 -9 -23 -18 -30 -16 -13 -17 -12 -4 4 12 15 12 17 -2 11 -8 -3 -18
-12 -21 -19 -3 -8 -14 -11 -28 -8 -17 3 -19 2 -9 -5 17 -12 -1 -23 -19 -11
-20 12 -30 11 -30 -2 0 -5 5 -7 10 -4 6 3 10 1 10 -4 0 -19 -17 -12 -33 13
-15 22 -15 25 1 38 16 12 16 11 2 -7 -14 -18 -14 -19 2 -7 10 8 14 20 11 29
-5 13 -2 15 11 10 9 -4 15 -3 11 2 -3 5 -1 12 5 16 6 4 7 12 3 18 -4 7 2 5 12
-3 13 -10 16 -11 11 -2 -10 16 32 64 47 55 6 -4 8 0 4 11 -6 14 -3 15 13 6 16
-8 20 -8 18 2 -2 7 4 13 13 13 9 0 25 7 35 15 16 13 17 13 10 0 -6 -12 -4 -11
6 1 7 9 19 14 27 11 9 -3 11 0 6 8 -5 8 -4 11 3 6 6 -4 9 -13 5 -21z m194 -8
c-10 16 20 10 36 -7 9 -11 8 -11 -8 0 -19 14 -19 14 -6 -3 9 -12 17 -14 26 -7
8 7 18 3 33 -14 11 -13 18 -27 15 -30 -4 -3 4 -6 16 -6 16 0 21 -4 18 -14 -4
-11 -1 -13 11 -9 9 3 14 3 10 -1 -3 -4 6 -20 21 -34 15 -15 18 -20 7 -12 -20
14 -20 14 -6 -5 8 -11 21 -26 28 -33 7 -8 10 -18 7 -23 -4 -5 -2 -9 3 -9 6 0
13 -7 16 -16 3 -8 2 -13 -2 -10 -5 3 -9 -1 -9 -8 0 -8 6 -12 14 -9 11 4 11 0
4 -21 -7 -17 -7 -27 1 -32 7 -5 8 -2 3 7 -8 12 -6 12 8 0 18 -14 23 -26 8 -16
-6 3 -15 -5 -22 -17 -12 -22 -11 -22 6 -8 12 10 16 10 11 2 -4 -7 -3 -19 3
-26 8 -10 7 -17 -6 -27 -11 -9 -14 -10 -9 -1 10 17 1 15 -14 -4 -11 -12 -11
-15 0 -12 7 2 15 -3 18 -11 3 -10 0 -12 -13 -7 -15 5 -16 4 -5 -9 10 -12 10
-15 0 -15 -9 0 -9 -4 1 -17 8 -9 9 -14 2 -10 -7 5 -14 -4 -18 -23 -4 -16 -11
-30 -16 -30 -5 0 -9 -6 -9 -14 0 -7 -11 -25 -25 -40 -13 -14 -21 -26 -17 -26
3 0 -4 -7 -16 -16 -19 -13 -25 -14 -39 -2 -14 11 -16 11 -8 -1 5 -10 4 -12 -3
-7 -7 4 -12 17 -12 29 0 16 -3 18 -9 9 -7 -11 -9 -10 -15 3 -3 10 -11 13 -18
9 -7 -4 -10 -4 -6 0 10 11 -14 34 -29 29 -7 -3 -16 2 -19 11 -3 9 -12 16 -20
16 -8 0 -14 6 -14 13 0 8 -4 7 -10 -3 -8 -12 -10 -12 -11 5 0 13 -3 15 -6 6
-4 -11 -7 -11 -13 0 -10 16 -42 22 -34 6 3 -7 -5 -1 -17 13 -15 17 -20 19 -16
7 5 -14 3 -16 -12 -8 -10 6 -21 7 -25 4 -3 -3 -6 -1 -6 6 0 7 -5 9 -10 6 -6
-4 -8 -10 -6 -14 3 -4 -1 -8 -9 -8 -8 0 -12 4 -10 8 3 4 -2 9 -10 13 -8 3 -15
2 -15 -2 0 -4 -9 -8 -20 -9 -11 -1 -18 2 -16 6 3 4 -1 8 -9 8 -8 0 -12 -4 -10
-8 3 -3 -4 -9 -15 -12 -11 -3 -18 -1 -15 3 7 11 -22 7 -32 -5 -5 -4 -1 -4 7 0
13 8 13 7 1 -8 -10 -13 -17 -15 -27 -6 -11 9 -14 8 -15 -2 0 -10 -2 -11 -6 -1
-2 6 -11 12 -19 12 -9 0 -12 -5 -8 -12 4 -7 3 -8 -5 -4 -9 6 -9 11 0 22 6 8 7
14 2 14 -5 0 -10 12 -11 26 -1 15 -8 34 -15 42 -9 13 -9 14 1 8 17 -10 15 10
-4 28 -14 15 -14 16 0 16 9 0 16 5 16 11 0 5 -6 7 -12 3 -7 -4 -9 -3 -5 1 8
10 28 15 70 17 15 0 27 5 27 10 0 4 11 6 25 4 14 -3 23 -1 20 4 -6 10 23 22
36 14 5 -3 9 3 9 13 0 15 2 16 10 3 9 -13 10 -13 10 0 0 13 1 13 10 0 8 -12
10 -10 10 9 0 18 4 22 20 18 11 -3 18 -1 14 4 -3 5 0 9 6 9 6 0 8 4 5 10 -3 5
6 12 20 16 13 3 22 10 19 15 -5 8 8 13 27 11 4 -1 6 6 5 16 0 9 5 16 12 14 6
-1 11 1 11 5 -1 5 -1 17 0 28 1 15 3 17 10 7 7 -11 9 -11 14 1 3 8 0 20 -6 26
-9 9 -8 11 6 5 12 -4 17 -2 15 7 -2 8 3 13 10 11 10 -2 10 2 1 19 -6 12 -7 19
-1 15 5 -3 13 1 16 10 4 10 2 13 -7 8 -8 -5 -8 -2 2 9 7 9 17 14 22 11 5 -3 9
0 9 7 0 7 8 5 22 -7 12 -10 18 -14 15 -7z m-722 -147 c3 -6 -1 -7 -9 -4 -18 7
-21 14 -7 14 6 0 13 -4 16 -10z m-1275 -70 c0 -5 -5 -10 -11 -10 -5 0 -7 5 -4
10 3 6 8 10 11 10 2 0 4 -4 4 -10z m1187 -19 c-9 -11 -9 -13 0 -8 6 4 14 3 18
-2 3 -6 13 -7 22 -4 12 5 14 3 8 -7 -6 -10 -4 -12 8 -7 11 4 14 2 10 -9 -4
-10 0 -12 11 -8 12 5 15 2 10 -12 -3 -11 -2 -15 3 -8 9 12 54 14 47 2 -3 -4 2
-8 11 -8 10 0 13 -5 9 -12 -5 -9 -2 -8 9 1 16 12 17 12 10 -5 -6 -17 -5 -17
10 -5 15 12 17 12 11 -4 -5 -13 -4 -16 4 -11 8 5 12 0 12 -13 0 -12 -6 -21
-12 -21 -9 0 -9 -3 1 -9 8 -5 11 -16 8 -25 -4 -9 -2 -16 3 -16 6 0 10 -5 10
-11 0 -5 -4 -8 -9 -5 -4 3 -6 -6 -3 -19 2 -14 8 -25 13 -25 5 0 9 -12 9 -26 0
-15 4 -23 11 -18 6 4 9 -1 8 -12 -2 -11 0 -25 4 -31 6 -9 3 -11 -9 -6 -12 4
-15 3 -10 -5 4 -7 2 -12 -4 -12 -6 0 -8 -5 -4 -12 5 -8 0 -7 -11 2 -11 9 -16
10 -11 3 4 -8 2 -13 -4 -13 -7 0 -10 -7 -7 -14 4 -11 1 -13 -10 -9 -11 4 -14
3 -9 -5 4 -7 1 -15 -8 -18 -9 -3 -16 -12 -16 -20 0 -7 -12 -25 -27 -40 -16
-15 -22 -23 -15 -19 11 6 12 3 3 -14 -7 -11 -14 -21 -17 -21 -3 0 -3 4 1 9 3
5 1 12 -5 16 -5 3 -11 -2 -11 -12 -1 -17 -2 -17 -6 0 -5 18 -5 18 -18 0 -13
-17 -14 -17 -20 0 -4 9 -11 17 -17 17 -5 0 -6 -6 -2 -12 6 -10 4 -10 -7 0 -16
14 -33 16 -24 2 3 -6 -1 -7 -9 -4 -9 3 -14 9 -11 13 2 4 -2 8 -10 8 -8 0 -12
-5 -8 -10 3 -5 -4 -6 -17 -2 -18 6 -22 4 -17 -8 4 -11 2 -14 -8 -10 -8 3 -12
10 -8 17 3 6 -4 2 -16 -8 -22 -20 -22 -20 -28 2 -3 12 -9 19 -14 16 -5 -3 -10
0 -10 5 -1 6 -2 17 -3 24 -1 6 -8 11 -15 9 -7 -1 -10 2 -7 7 4 5 -1 16 -10 25
-8 9 -12 21 -8 27 4 7 3 9 -3 6 -5 -3 -15 3 -23 13 -8 10 -18 16 -24 13 -5 -4
-7 0 -3 10 3 9 0 18 -9 21 -9 3 -12 1 -9 -4 3 -6 4 -10 1 -10 -3 0 -10 9 -16
19 -7 14 -7 22 2 27 7 5 8 3 3 -6 -5 -9 -4 -11 4 -6 9 6 9 11 0 22 -9 11 -9
14 1 14 7 0 10 7 7 15 -4 8 -1 17 5 21 7 5 8 2 3 -6 -5 -9 -4 -11 4 -6 9 6 9
11 -1 24 -11 13 -11 15 3 10 10 -4 16 -1 16 8 0 8 -3 14 -7 14 -4 0 -7 7 -7
15 0 8 5 11 10 8 6 -4 8 0 4 10 -3 9 -2 19 4 23 6 4 6 11 -2 20 -8 10 -8 14 0
14 6 0 11 5 11 11 0 5 -6 7 -12 3 -9 -5 -9 -3 1 9 7 9 17 14 22 11 5 -3 9 0 9
7 0 6 8 9 20 6 11 -3 18 -1 15 3 -3 4 9 13 26 19 29 10 30 9 18 -6 -12 -14
-10 -14 14 1 15 10 27 23 27 28 0 5 5 6 12 2 7 -5 9 -2 5 8 -4 11 -1 14 12 11
10 -3 21 2 24 10 3 8 17 14 30 13 21 -1 23 -4 14 -15z m-593 -353 c-5 -8 -2
-9 12 -4 32 13 55 16 49 6 -3 -5 -1 -11 5 -15 5 -3 10 0 10 7 0 9 3 9 10 -2
13 -20 13 -33 0 -25 -6 3 -7 -1 -4 -9 4 -11 0 -16 -10 -16 -9 0 -16 -5 -16
-12 0 -6 -3 -8 -7 -5 -3 4 -12 -1 -20 -11 -8 -9 -12 -11 -8 -4 3 6 2 12 -3 12
-6 0 -13 -7 -16 -16 -5 -14 -9 -14 -23 -3 -10 8 -14 9 -10 2 4 -6 3 -14 -3
-18 -5 -3 -10 0 -10 7 0 8 -4 7 -11 -4 -7 -14 -15 -15 -34 -8 -17 7 -25 6 -25
-1 0 -8 -5 -7 -15 1 -10 9 -15 9 -15 1 0 -6 -5 -11 -11 -11 -5 0 -8 4 -5 8 3
5 -1 9 -9 9 -8 0 -12 -4 -10 -8 4 -6 -25 -5 -32 1 -2 2 -7 3 -12 4 -5 0 -13 5
-18 10 -5 5 -3 6 5 2 6 -4 12 -2 12 4 0 6 4 8 10 5 5 -3 7 0 4 8 -6 16 41 51
56 42 6 -3 10 2 10 12 0 15 2 16 10 3 9 -14 14 -7 11 13 -1 4 8 3 20 -4 13 -6
19 -7 15 -1 -3 6 -2 13 4 17 5 3 10 1 10 -6 0 -8 4 -8 15 1 12 10 15 10 15 -1
0 -9 3 -10 8 -3 6 9 23 19 40 23 2 1 0 -4 -4 -11z m1140 0 c-5 -8 0 -9 14 -6
12 4 22 2 22 -3 0 -5 5 -9 11 -9 5 0 7 5 3 11 -3 6 5 4 18 -5 14 -9 28 -13 32
-9 4 4 10 2 15 -5 4 -6 19 -13 33 -14 15 -1 24 -6 22 -10 -3 -4 3 -8 14 -8 26
0 58 -35 41 -46 -8 -5 -10 -3 -4 6 5 9 4 11 -4 6 -9 -6 -9 -11 0 -22 14 -17
-2 -19 -19 -2 -9 9 -13 7 -18 -5 -3 -9 -10 -14 -15 -11 -5 3 -7 10 -4 15 11
16 -7 10 -22 -8 -14 -17 -14 -17 -8 2 5 16 4 18 -6 8 -15 -15 -33 -17 -24 -3
4 6 -2 7 -17 2 -27 -10 -58 -5 -58 9 0 6 -4 8 -9 4 -5 -3 -16 2 -24 10 -9 8
-22 15 -31 15 -8 0 -28 11 -43 24 -22 20 -25 27 -16 37 16 16 43 20 43 7 0 -7
5 -6 14 1 11 9 15 9 19 -1 4 -8 6 -7 6 5 1 9 6 17 12 17 5 0 7 -5 3 -12z
m-176 -118 c5 0 16 -8 23 -17 13 -17 13 -17 -6 -3 -18 14 -19 14 -7 -2 8 -10
20 -14 29 -11 12 5 14 3 8 -7 -6 -10 -4 -12 9 -7 11 5 15 3 10 -5 -5 -7 -2 -9
9 -5 11 4 14 2 11 -8 -4 -10 0 -13 15 -10 14 3 21 -1 21 -12 0 -14 2 -14 15 3
14 18 15 18 8 0 -5 -16 -2 -18 25 -14 24 3 29 1 22 -7 -8 -9 -3 -12 20 -9 17
2 29 0 25 -5 -6 -11 14 -9 33 2 8 5 12 2 12 -8 0 -9 5 -13 10 -10 6 4 8 10 6
14 -8 12 33 6 45 -6 12 -12 42 -6 35 6 -3 3 13 6 34 6 22 0 36 4 33 9 -4 5 1
7 10 3 9 -3 17 -1 19 4 6 18 48 -24 53 -53 3 -15 10 -39 15 -53 7 -17 7 -24 0
-20 -6 3 -10 4 -10 1 0 -2 -3 -13 -6 -23 -5 -15 -4 -16 5 -3 10 12 11 9 9 -15
-1 -17 1 -35 5 -42 4 -7 0 -16 -10 -22 -11 -6 -13 -11 -5 -11 7 0 10 -5 7 -10
-4 -6 -11 -7 -17 -4 -7 4 -8 2 -4 -5 4 -6 2 -19 -6 -28 -11 -14 -11 -16 0 -9
12 7 12 4 1 -15 -7 -13 -12 -27 -11 -32 1 -4 -4 -6 -10 -5 -7 2 -12 -5 -10
-14 1 -9 -8 -24 -20 -32 -13 -9 -23 -22 -23 -29 0 -6 -6 -12 -13 -12 -7 0 -17
-7 -22 -15 -5 -8 -10 -10 -10 -5 0 6 -5 2 -11 -8 -6 -9 -14 -15 -20 -12 -5 4
-9 1 -9 -5 0 -7 -7 -10 -15 -6 -9 3 -15 0 -15 -9 0 -7 -5 -17 -12 -21 -7 -5
-8 -3 -3 6 11 18 -36 1 -53 -19 -11 -14 -12 -13 -6 9 l6 25 -19 -22 c-16 -18
-22 -20 -33 -10 -9 8 -11 8 -6 0 4 -7 -1 -9 -16 -5 -15 4 -19 2 -13 -7 6 -10
3 -11 -14 -2 -11 7 -21 9 -21 6 0 -3 -10 0 -22 7 -13 7 -25 12 -28 11 -3 -1
-5 14 -5 33 0 20 4 33 11 30 6 -2 10 9 10 25 0 19 -4 28 -11 25 -8 -3 -11 7
-8 29 2 19 -1 37 -7 40 -8 5 -8 11 0 20 8 9 8 15 0 20 -5 3 -10 13 -10 22 0 8
-9 28 -21 45 -12 16 -22 40 -23 53 -1 19 -4 21 -15 12 -12 -10 -13 -9 -7 2 6
9 -4 25 -32 51 -23 20 -39 40 -35 44 3 3 -1 6 -10 6 -10 0 -17 5 -17 11 0 5
-4 7 -10 4 -5 -3 -10 1 -10 10 0 9 -3 14 -8 11 -4 -2 -13 7 -19 20 -9 20 -9
26 3 31 8 3 14 10 14 15 0 6 8 17 18 25 9 8 11 12 5 8 -27 -13 -11 6 20 25 17
11 25 20 17 21 -10 0 -8 3 5 9 15 6 24 3 37 -11 9 -10 21 -19 26 -19z m-754
18 c-6 -10 -4 -10 8 0 18 15 48 6 48 -14 0 -8 7 -17 16 -21 9 -3 13 -12 9 -21
-3 -9 -3 -13 1 -10 9 9 29 -12 36 -37 5 -19 -11 -44 -29 -46 -21 -3 -32 -12
-26 -22 4 -6 0 -8 -10 -4 -11 4 -14 2 -11 -7 3 -8 0 -17 -7 -22 -8 -4 -10 -3
-5 4 4 7 5 12 1 12 -3 0 -10 -12 -15 -26 -7 -17 -16 -24 -25 -21 -9 4 -12 1
-8 -9 3 -7 0 -14 -7 -14 -7 0 -10 -7 -6 -16 3 -8 2 -13 -2 -10 -4 2 -14 1 -22
-5 -13 -8 -13 -9 0 -9 10 0 7 -5 -8 -16 -12 -8 -20 -20 -17 -25 4 -5 0 -9 -7
-10 -10 0 -10 -2 0 -6 6 -2 12 -9 12 -14 0 -6 -5 -7 -11 -3 -8 5 -10 -1 -7
-19 3 -16 1 -24 -5 -20 -6 4 -8 -4 -5 -20 3 -15 2 -24 -2 -22 -5 3 -11 -2 -14
-11 -4 -10 -2 -13 7 -8 6 4 4 -2 -6 -13 -14 -16 -15 -23 -6 -29 8 -4 10 -3 5
4 -4 7 -2 12 3 12 13 0 13 -3 5 -24 -3 -9 -10 -13 -15 -10 -5 3 -6 -3 -2 -12
5 -13 3 -15 -7 -9 -8 5 -11 4 -6 -3 4 -6 13 -9 20 -6 17 6 15 -38 -2 -58 -6
-8 -8 -18 -4 -23 4 -4 -4 -2 -17 5 -21 11 -23 10 -17 -5 5 -14 4 -16 -7 -7 -8
7 -17 9 -21 5 -13 -14 -57 -11 -52 3 3 7 0 16 -6 20 -6 4 -8 3 -5 -3 4 -6 -3
-13 -14 -16 -15 -4 -19 -2 -15 9 6 15 -15 15 -26 -1 -5 -6 -8 -5 -8 4 0 7 -6
11 -15 7 -8 -3 -21 2 -30 10 -8 8 -23 16 -34 17 -10 0 -17 6 -14 13 2 7 -1 15
-8 20 -8 4 -10 3 -5 -4 4 -7 2 -12 -3 -12 -10 0 -15 13 -12 32 0 4 -8 5 -19 3
-11 -2 -23 1 -26 7 -4 7 -2 8 4 4 19 -12 14 3 -10 29 -42 44 -49 55 -43 64 3
5 0 13 -6 17 -8 4 -9 3 -5 -4 5 -8 1 -10 -9 -5 -9 3 -12 9 -7 12 11 7 12 41 0
41 -4 0 -7 3 -7 8 1 4 1 9 0 12 -2 3 -4 19 -7 37 -2 18 -4 36 -5 40 -3 20 2
34 10 28 6 -3 6 6 1 25 -5 18 -5 30 1 30 5 0 9 5 9 11 0 5 -5 7 -11 3 -8 -4
-8 0 0 15 7 12 9 25 6 30 -3 5 5 7 17 4 16 -3 19 -2 10 5 -10 7 -9 12 4 23 10
8 15 9 11 3 -4 -7 0 -14 8 -17 9 -4 12 -1 8 9 -3 7 0 14 6 14 6 0 11 -7 11
-15 0 -8 5 -15 11 -15 5 0 7 4 4 10 -3 6 1 7 9 4 9 -3 16 -10 16 -15 0 -5 5
-9 11 -9 5 0 7 4 4 10 -7 12 23 2 44 -14 11 -8 13 -8 7 2 -4 6 -2 12 3 12 6 0
11 -6 12 -12 0 -10 2 -10 6 -1 3 10 10 10 25 2 15 -8 19 -8 14 0 -4 6 -2 11 3
11 6 0 11 -5 11 -11 0 -7 10 -5 25 5 13 9 28 16 32 16 4 0 1 -5 -7 -10 -12 -7
-10 -9 7 -7 12 0 19 5 16 10 -3 6 8 8 25 5 24 -3 29 -2 21 8 -8 9 -4 12 15 10
17 -2 26 2 26 10 0 8 5 14 11 14 5 0 7 -4 4 -10 -3 -6 1 -7 9 -4 9 3 15 9 14
12 -2 19 4 23 17 12 13 -11 14 -10 9 4 -4 11 -2 16 7 14 8 -2 13 3 11 11 -2 8
3 11 12 8 9 -4 18 -2 21 3 4 6 0 10 -7 10 -7 0 -2 7 12 14 32 18 32 18 24 4z
m347 -188 c6 0 8 4 4 9 -10 17 49 1 62 -16 11 -15 13 -15 19 2 7 16 7 16 17
-1 7 -13 7 -19 -2 -22 -9 -3 -7 -10 6 -25 10 -11 12 -17 5 -13 -8 5 -11 0 -8
-16 2 -13 -1 -31 -6 -42 -7 -13 -7 -16 1 -12 6 4 11 3 11 -3 0 -5 -4 -12 -10
-16 -5 -3 -7 -12 -4 -20 4 -8 10 -12 15 -9 5 3 6 -1 3 -9 -3 -8 -1 -18 5 -22
8 -4 8 -12 0 -27 -10 -18 -8 -19 13 -13 19 6 21 5 11 -6 -15 -16 -17 -33 -3
-24 6 4 10 -5 10 -20 0 -18 6 -29 20 -32 11 -3 20 -10 20 -15 0 -5 -4 -6 -10
-3 -5 3 -10 1 -10 -4 0 -10 14 -15 33 -12 4 0 7 -3 7 -9 0 -5 -5 -10 -12 -10
-6 0 -3 -6 7 -14 11 -8 24 -12 29 -9 5 4 6 1 2 -5 -4 -7 -2 -12 3 -12 6 0 11
-9 11 -20 0 -11 4 -20 10 -20 5 0 6 8 3 17 -4 9 10 2 30 -17 20 -18 37 -40 37
-49 0 -14 2 -14 10 -1 5 8 10 10 10 4 0 -6 -12 -23 -27 -38 -21 -21 -22 -25
-7 -20 11 4 8 -2 -9 -13 -15 -11 -24 -23 -20 -26 3 -4 -1 -7 -10 -7 -9 0 -17
-5 -17 -11 0 -6 -7 -17 -15 -25 -12 -12 -15 -12 -15 -2 0 7 -6 2 -13 -12 -7
-14 -19 -25 -27 -25 -8 -1 -25 -6 -36 -13 -12 -6 -25 -8 -29 -4 -5 4 -6 0 -2
-10 6 -16 -15 -20 -29 -5 -12 12 -24 8 -24 -9 0 -8 -5 -12 -10 -9 -6 4 -8 12
-4 18 3 7 -2 3 -10 -7 -9 -11 -16 -15 -16 -8 0 6 -8 11 -17 10 -10 -1 -37 0
-60 0 -34 2 -43 6 -43 20 0 14 -2 15 -10 2 -6 -9 -10 -11 -10 -3 0 7 -7 10
-17 6 -12 -5 -14 -3 -8 7 6 10 4 12 -10 6 -18 -7 -60 26 -48 38 4 3 -2 6 -12
6 -22 0 -77 59 -68 73 3 6 2 7 -3 4 -6 -3 -16 -2 -24 4 -12 6 -12 9 -2 9 10 0
10 4 -2 16 -18 18 -6 54 19 54 8 0 20 9 28 20 8 11 17 17 20 13 4 -3 7 1 7 10
0 9 5 18 10 18 6 1 14 2 19 3 5 0 13 5 18 10 5 5 3 6 -4 2 -22 -13 -14 6 12
29 15 12 27 31 28 43 0 11 4 20 7 20 3 0 12 0 20 1 13 1 13 2 0 11 -13 9 -13
12 3 24 17 13 25 32 8 22 -4 -3 -1 10 8 28 9 19 18 32 21 31 3 -2 7 6 7 18 2
17 0 19 -7 7 -8 -12 -9 -11 -7 5 2 11 7 27 11 36 4 9 6 20 5 25 -1 5 0 11 1
14 7 20 7 41 -2 46 -6 4 -5 10 3 15 12 7 12 9 0 9 -8 0 -4 8 10 19 17 14 26
16 31 8 5 -8 8 -5 9 8 0 11 3 14 6 8 2 -7 9 -13 14 -13z m253 -72 c4 4 6 2 4
-4 -1 -7 1 -11 5 -10 14 2 39 -53 31 -67 -5 -6 1 -5 11 3 11 9 16 10 11 2 -4
-7 -1 -14 7 -18 9 -3 14 -16 12 -30 -1 -14 0 -22 3 -19 3 2 11 -3 18 -13 9
-13 10 -20 1 -31 -9 -12 -9 -13 1 -7 11 6 17 -11 13 -36 0 -5 3 -8 7 -8 4 0 7
-16 7 -37 -1 -40 -30 -56 -40 -22 -4 10 -11 19 -16 19 -5 0 -20 10 -32 21 -12
12 -15 19 -7 15 9 -5 8 -2 -2 7 -10 8 -18 19 -18 26 0 6 -5 11 -11 11 -7 0 -9
11 -6 26 3 20 0 28 -14 31 -19 5 -19 6 -2 19 16 12 16 13 1 8 -13 -4 -15 -1
-11 15 3 14 1 21 -8 21 -11 0 -11 2 1 10 8 5 10 10 5 10 -6 0 -11 11 -11 25 0
20 2 22 15 12 12 -10 13 -9 1 13 -12 22 -11 24 2 13 8 -7 18 -9 22 -5z m-448
-13 c16 -8 23 -15 17 -15 -7 0 -12 -3 -12 -7 1 -5 1 -21 0 -36 -1 -20 -5 -26
-13 -21 -10 6 -10 4 0 -8 11 -14 9 -20 -10 -39 -13 -12 -16 -18 -8 -14 9 5 8
0 -4 -14 -20 -22 -20 -22 0 -16 17 6 18 6 1 -5 -9 -6 -15 -15 -12 -21 3 -5 -1
-6 -10 -3 -11 4 -14 2 -10 -9 4 -8 -1 -17 -10 -21 -9 -3 -14 -10 -10 -15 3 -5
-4 -12 -15 -16 -12 -4 -17 -11 -14 -18 4 -7 3 -9 -1 -4 -5 4 -18 1 -29 -7 -20
-12 -21 -11 -21 23 0 20 7 42 15 49 10 9 10 11 1 7 -8 -5 -7 2 5 21 18 28 18
29 0 14 -18 -14 -19 -14 -8 6 6 12 8 25 4 29 -4 5 -1 5 6 1 6 -4 12 -2 12 4 0
6 4 9 9 5 6 -3 8 3 6 14 -4 21 22 64 35 56 4 -3 6 5 3 17 -3 13 -3 20 1 16 9
-8 45 24 39 35 -6 10 1 9 33 -8z m-202 -66 c-3 -5 -10 -7 -15 -3 -5 3 -7 10
-3 15 3 5 10 7 15 3 5 -3 7 -10 3 -15z m896 -209 c0 -5 -2 -10 -4 -10 -3 0 -8
5 -11 10 -3 6 -1 10 4 10 6 0 11 -4 11 -10z m355 -119 c3 -5 2 -12 -3 -15 -5
-3 -9 1 -9 9 0 17 3 19 12 6z m-1467 -86 c-3 -3 -9 2 -12 12 -6 14 -5 15 5 6
7 -7 10 -15 7 -18z"/>
<path d="M630 2001 c0 -6 4 -12 8 -15 5 -3 9 1 9 9 0 8 -4 15 -9 15 -4 0 -8
-4 -8 -9z"/>
<path d="M1150 1806 c0 -2 7 -7 16 -10 8 -3 12 -2 9 4 -6 10 -25 14 -25 6z"/>
<path d="M1390 2246 c0 -2 8 -10 18 -17 15 -13 16 -12 3 4 -13 16 -21 21 -21
13z"/>
<path d="M1774 1229 c-3 -6 1 -17 10 -25 9 -8 12 -9 7 -3 -5 6 -7 18 -4 25 6
17 -3 19 -13 3z"/>
<path d="M799 533 c-13 -16 -12 -17 4 -4 16 13 21 21 13 21 -2 0 -10 -8 -17
-17z"/>
<path d="M716 512 c-3 -5 1 -9 9 -9 8 0 12 4 9 9 -3 4 -7 8 -9 8 -2 0 -6 -4
-9 -8z"/>
<path d="M1575 470 c10 -11 20 -20 23 -20 3 0 -3 9 -13 20 -10 11 -20 20 -23
20 -3 0 3 -9 13 -20z"/>
<path d="M1456 2463 c-6 -14 -5 -15 5 -6 7 7 10 15 7 18 -3 3 -9 -2 -12 -12z"/>
</g>
</svg>
