<?xml version="1.0" standalone="no"?>
<!DOCTYPE svg PUBLIC "-//W3C//DTD SVG 20010904//EN"
 "http://www.w3.org/TR/2001/REC-SVG-20010904/DTD/svg10.dtd">
<svg version="1.0" xmlns="http://www.w3.org/2000/svg"
 width="300.000000pt" height="300.000000pt" viewBox="0 0 300.000000 300.000000"
 preserveAspectRatio="xMidYMid meet">
<metadata>
Created by potrace 1.11, written by Peter Selinger 2001-2013
</metadata>
<g transform="translate(0.000000,300.000000) scale(0.100000,-0.100000)"
fill="#000000" stroke="none">
<path d="M978 2914 c-158 -38 -313 -162 -381 -304 -39 -82 -65 -191 -61 -256
l2 -41 -62 -17 c-99 -28 -175 -74 -256 -156 -112 -113 -160 -222 -166 -381 -7
-193 75 -369 229 -486 l28 -22 -20 -38 c-58 -116 -71 -306 -27 -429 73 -207
226 -340 451 -391 39 -9 171 -5 220 7 32 7 51 8 53 1 2 -5 21 -37 42 -70 163
-252 472 -340 741 -210 123 60 231 176 285 307 1 1 23 -2 50 -8 179 -41 395
23 528 156 86 86 158 234 165 339 8 122 -3 194 -45 302 l-25 61 51 48 c61 57
119 147 150 234 31 85 34 276 6 355 -69 195 -215 334 -407 389 l-56 17 -6 78
c-11 135 -67 260 -160 353 -120 121 -266 182 -427 177 -123 -4 -221 -37 -322
-108 -46 -32 -60 -38 -70 -28 -27 27 -136 88 -193 108 -76 27 -234 34 -317 13z
m242 -76 c63 -15 148 -55 193 -91 38 -29 38 -30 19 -51 -89 -100 -135 -290
-106 -446 15 -79 37 -136 83 -214 l35 -59 -25 -20 c-31 -25 -154 -84 -195 -92
-29 -6 -31 -4 -43 37 -68 227 -278 398 -506 410 -27 2 -53 7 -56 12 -15 20 2
132 32 211 20 54 89 156 125 185 31 25 107 75 134 87 82 39 219 52 310 31z
m795 -5 c168 -42 303 -173 355 -342 21 -71 22 -163 0 -166 -8 -1 -36 -5 -61
-8 -191 -23 -354 -139 -442 -313 -14 -28 -31 -72 -38 -98 -11 -46 -11 -46 -48
-40 -47 8 -152 58 -191 90 l-30 26 20 28 c74 104 111 231 106 364 -5 111 -31
200 -86 285 l-40 62 22 20 c32 27 157 88 193 95 16 3 31 7 33 9 10 9 155 1
207 -12z m-429 -330 c19 -58 26 -208 12 -263 -13 -53 -51 -138 -73 -166 -23
-29 -24 -29 -39 -9 -110 146 -117 388 -15 549 l31 49 33 -51 c17 -28 41 -77
51 -109z m-806 -293 c66 -19 166 -81 208 -129 64 -71 131 -199 116 -222 -14
-23 -155 14 -240 62 -100 56 -205 189 -229 291 -7 27 -6 27 37 22 23 -2 72
-13 108 -24z m1589 -2 c-52 -183 -232 -333 -423 -352 -45 -5 -46 -4 -42 20 9
50 64 150 109 200 82 91 225 163 324 164 l42 0 -10 -32z m207 -3 c85 -35 184
-122 231 -202 48 -82 65 -143 69 -240 4 -106 -10 -166 -62 -262 -32 -57 -114
-151 -132 -151 -4 0 -27 21 -52 46 -163 164 -416 214 -628 123 -24 -11 -45
-19 -48 -19 -2 0 -12 17 -22 38 -22 43 -40 116 -46 185 -3 42 -2 47 18 48 151
6 310 77 409 184 62 66 118 162 133 228 11 44 11 46 13 51 2 6 79 -13 117 -29z
m-2017 -17 c54 -183 212 -341 391 -392 47 -14 85 -19 166 -25 27 -2 -12 -215
-48 -264 -12 -17 -16 -17 -50 -3 -204 86 -461 27 -622 -141 l-44 -45 -43 38
c-64 57 -85 83 -118 144 -105 195 -71 426 84 584 75 77 171 129 266 145 3 1
11 -18 18 -41z m963 -281 c46 -43 160 -101 235 -118 l48 -11 2 -62 c3 -72 17
-131 50 -206 l23 -55 -67 -71 c-38 -38 -82 -97 -99 -130 -19 -36 -37 -58 -45
-56 -76 19 -184 23 -260 8 l-66 -12 -29 55 c-27 54 -129 168 -167 188 -17 9
-16 12 6 64 32 71 48 144 50 218 l2 60 50 12 c59 14 145 55 200 97 46 35 49
36 67 19z m830 -442 c31 -8 80 -26 108 -41 59 -31 155 -114 143 -124 -15 -13
-89 -38 -134 -46 -156 -26 -339 34 -443 144 l-29 32 35 14 c104 44 206 50 320
21z m-1427 -16 c95 -22 97 -26 36 -80 -93 -83 -214 -129 -339 -129 -58 0 -170
24 -185 39 -5 5 16 29 44 55 74 67 159 107 254 122 22 3 41 7 42 8 6 5 102 -5
148 -15z m241 -137 c27 -27 62 -72 77 -100 26 -48 27 -53 10 -59 -44 -17 -152
-107 -196 -164 -40 -52 -85 -151 -101 -219 -13 -54 -16 -227 -5 -269 8 -30
-155 -44 -251 -21 -302 71 -474 422 -338 693 10 20 20 37 21 37 2 0 30 -10 62
-22 88 -32 273 -32 365 1 87 31 166 79 225 140 56 57 57 57 131 -17z m800 35
c99 -112 258 -180 420 -179 79 0 181 21 236 49 36 17 35 17 53 -16 49 -95 60
-252 26 -362 -66 -210 -255 -349 -476 -349 -97 0 -141 11 -137 36 8 55 4 196
-7 244 -33 139 -149 299 -267 366 -45 26 -50 32 -43 52 23 60 131 192 158 192
5 0 21 -15 37 -33z m-335 -222 l27 -7 -5 -101 c-4 -77 -1 -118 12 -167 38
-146 127 -271 251 -351 35 -23 64 -44 64 -46 0 -14 -46 -88 -84 -135 -48 -59
-123 -114 -196 -142 -128 -50 -275 -45 -399 15 -74 36 -181 136 -219 206 l-22
41 50 31 c140 86 238 226 268 381 9 47 8 209 -2 242 -7 25 -6 26 46 36 56 10
165 8 209 -3z m-327 -76 c35 -174 -59 -394 -210 -494 -30 -20 -58 -35 -60 -32
-3 2 -8 36 -11 75 -11 134 35 273 122 370 41 45 127 112 145 112 4 0 10 -14
14 -31z m497 -1 c135 -97 210 -243 211 -410 1 -49 -2 -91 -5 -95 -4 -3 -19 2
-34 12 -158 102 -241 252 -241 438 0 100 3 103 69 55z"/>
</g>
</svg>
