<?xml version="1.0" encoding="utf-8"?>
<!-- Generator: Adobe Illustrator 21.0.0, SVG Export Plug-In . SVG Version: 6.00 Build 0)  -->
<svg version="1.1" xmlns="http://www.w3.org/2000/svg" xmlns:xlink="http://www.w3.org/1999/xlink" x="0px" y="0px"
	 viewBox="0 0 146.5 203.5" enable-background="new 0 0 146.5 203.5" xml:space="preserve">
<g id="BKG" display="none">
	<path display="inline" d="M0,0h146.5v203.5c0,0-131.2,0-136.9,0S0,199.3,0,193S0,0,0,0z"/>
</g>
<g id="Text_1_" display="none">
</g>
<g id="Vita_ringar">
	<g>
		<circle fill="none" stroke="#FFFFFF" stroke-width="3" cx="40.9" cy="95.1" r="20.4"/>
		<circle fill="none" stroke="#FFFFFF" stroke-width="3" cx="47.9" cy="124.4" r="20.4"/>
		<circle fill="none" stroke="#FFFFFF" stroke-width="3" cx="74.7" cy="136.7" r="20.4"/>
		<circle fill="none" stroke="#FFFFFF" stroke-width="3" cx="59.3" cy="71.8" r="20.4"/>
		<circle fill="none" stroke="#FFFFFF" stroke-width="3" cx="89" cy="71.8" r="20.4"/>
		<circle fill="none" stroke="#FFFFFF" stroke-width="3" cx="107.6" cy="94.8" r="20.4"/>
		<circle fill="none" stroke="#FFFFFF" stroke-width="3" cx="101.6" cy="123.6" r="20.4"/>
	</g>
</g>
<g id="Mörka_ringar" display="none">
	<g display="inline">
		<circle fill="none" stroke="#000000" stroke-width="3" stroke-miterlimit="10" cx="40.4" cy="95.4" r="20.4"/>
		<circle fill="none" stroke="#000000" stroke-width="3" stroke-miterlimit="10" cx="47.4" cy="124.7" r="20.4"/>
		<circle fill="none" stroke="#000000" stroke-width="3" stroke-miterlimit="10" cx="74.2" cy="137" r="20.4"/>
		<circle fill="none" stroke="#000000" stroke-width="3" stroke-miterlimit="10" cx="58.8" cy="72.1" r="20.4"/>
		<circle fill="none" stroke="#000000" stroke-width="3" stroke-miterlimit="10" cx="88.5" cy="72.1" r="20.4"/>
		<circle fill="none" stroke="#000000" stroke-width="3" stroke-miterlimit="10" cx="107.1" cy="95.1" r="20.4"/>
		<circle fill="none" stroke="#000000" stroke-width="3" stroke-miterlimit="10" cx="101.1" cy="123.9" r="20.4"/>
	</g>
</g>
</svg>
